<svg id="Capa_1" enable-background="new 0 0 512 512" height="512" viewBox="0 0 512 512" width="512" xmlns="http://www.w3.org/2000/svg"><g><path d="m299.942 311.642c33.047 15.888 100.289-14.585 107.468-68.662l11.2-84.372h-325.22l12.131 91.379c68.521 16.479 163.808 46.937 194.421 61.655z" fill="#fbf1cf"/><path d="m357.955 434.37h-203.91v49.227c0 15.687 12.717 28.403 28.403 28.403h147.103c15.687 0 28.403-12.717 28.403-28.403v-49.227z" fill="#bce098"/><path d="m223.833 434.37h-69.788v49.227c0 15.687 12.716 28.403 28.403 28.403h56.13c-15.803-8.779-20.626-31.665-14.745-50.317z" fill="#99da90"/><path d="m223.965 273.691h-60.98v-255.286c0-10.165 8.24-18.405 18.405-18.405h24.17c10.165 0 18.405 8.24 18.405 18.405z" fill="#e7c7af"/><path d="m162.985 64.602h60.98v124.911h-60.98z" fill="#daa985"/><path d="m407.41 242.98c-7.179 54.077-109.241 23.523-142.287 7.635-30.613-14.718-106.741-30.067-159.603-.628l25.036 188.596c2.043 15.39 15.168 26.888 30.693 26.888h189.501c15.525 0 28.65-11.498 30.693-26.888z" fill="#b0ade2"/><path d="m407.41 242.98c-7.179 54.077-109.241 23.523-142.287 7.635 54.018-62.107 147.349-45.769 142.287-7.635z" fill="#a78cd6"/><g fill="#565e75"><ellipse cx="329.832" cy="415.914" rx="16.09" ry="16.09" transform="matrix(.924 -.383 .383 .924 -134.056 157.881)"/><ellipse cx="252.039" cy="399.824" rx="16.09" ry="16.09" transform="matrix(.16 -.987 .987 .16 -182.994 584.564)"/><circle cx="184.226" cy="413.855" r="16.09"/></g><g><path d="m251.367 378.674c-7.047 0-12.759-5.713-12.759-12.759v-31.489h25.519v31.489c0 7.046-5.713 12.759-12.76 12.759z" fill="#fff"/><g><ellipse cx="174.042" cy="340.171" fill="#eda1ab" rx="30.241" ry="24.082"/><ellipse cx="337.958" cy="340.171" fill="#eda1ab" rx="30.241" ry="24.082"/><path d="m280.382 321.667c0-15.068-10.916-16.484-24.382-16.484-13.465 0-24.382 1.416-24.382 16.484s10.916 27.283 24.382 27.283 24.382-12.215 24.382-27.283z" fill="#565e75"/></g><path d="m304.142 317.607c0-17.759 14.397-32.156 32.156-32.156s32.156 14.397 32.156 32.156-14.397 11.552-32.156 11.552-32.156 6.207-32.156-11.552z" fill="#fff"/><path d="m207.857 317.607c0-17.759-14.396-32.156-32.156-32.156-17.759 0-32.156 14.397-32.156 32.156s14.396 11.552 32.156 11.552 32.156 6.207 32.156-11.552z" fill="#fff"/><g fill="#565e75"><circle cx="190.067" cy="308.075" r="7.47"/><circle cx="321.933" cy="308.075" r="7.47"/></g></g><path d="m418.914 95.507h-325.828c-20.054 0-36.312 16.257-36.312 36.312v11.738c0 8.313 6.739 15.051 15.051 15.051h368.349c8.313 0 15.051-6.739 15.051-15.051v-11.738c.001-20.055-16.257-36.312-36.311-36.312z" fill="#bce098"/><path d="m169.941 95.507h-76.855c-20.054 0-36.311 16.257-36.311 36.311v11.738c0 8.313 6.739 15.051 15.051 15.051h114.745c-12.963-13.111-22.588-40.119-16.63-63.1z" fill="#99da90"/></g></svg>