<svg height="512pt" viewBox="0 -1 512 512" width="512pt" xmlns="http://www.w3.org/2000/svg"><path d="m512 178.773438c0 15.363281-1.9375 30.253906-5.582031 44.472656-8.617188 33.707031-26.816407 63.558594-51.527344 86.511718-5.414063 5.039063-12.566406 7.78125-19.957031 7.78125h-203.40625c-7.402344 0-14.554688-2.742187-19.96875-7.78125-20.625-19.148437-36.710938-43.117187-46.46875-70.113281-1.949219-5.351562-3.632813-10.816406-5.058594-16.398437-3.644531-14.21875-5.582031-29.109375-5.582031-44.472656 0-98.667969 79.949219-178.667969 178.597656-178.773438 6.230469-.0117188 12.386719.3125 18.460937.933594 76.019532 7.789062 138.25 63.609375 155.632813 136.449218 3.171875 13.289063 4.859375 27.152344 4.859375 41.390626zm0 0" fill="#c0694e"/><path d="m507.140625 137.382812-.605469.972657-35.917968 65.855469c-6.367188 11.652343-23.601563 9.988281-27.613282-2.671876l-14.660156-46.34375c-3.683594-11.675781-19.023438-14.304687-26.40625-4.523437l-23.332031 30.929687c-8.03125 10.648438-24.917969 6.386719-26.941407-6.796874l-8.53125-55.839844c-2.296874-14.996094-22.796874-17.601563-28.765624-3.65625l-41.738282 97.496094c-6.261718 14.628906-27.980468 10.839843-28.910156-5.046876l-3.070312-52.394531c-.898438-15.4375-21.675782-19.667969-28.542969-5.824219l-44.753907 90.105469h-2.261718c-1.949219-5.351562-3.632813-10.816406-5.058594-16.398437-3.644531-14.21875-5.582031-29.109375-5.582031-44.472656 0-98.667969 79.949219-178.667969 178.597656-178.773438 84.261719-.0820312 155.320313 58.722656 174.09375 137.382812zm0 0" fill="#954c35"/><path d="m351.496094.933594c-6.0625-.621094-12.21875-.9453128-18.449219-.933594-98.648437.105469-178.597656 80.105469-178.597656 178.773438 0 15.363281 1.9375 30.253906 5.582031 44.472656 1.425781 5.582031 3.109375 11.046875 5.058594 16.398437h2.261718l24.15625-48.648437c-.273437-4.042969-.410156-8.117188-.410156-12.222656 0-92.523438 70.296875-168.625 160.398438-177.839844zm0 0" fill="#7c3f2c"/><path d="m357.550781 370.921875c0 15.351563-1.9375 30.25-5.582031 44.472656-8.617188 33.695313-26.816406 63.558594-51.527344 86.511719-5.414062 5.035156-12.566406 7.78125-19.960937 7.78125h-203.402344c-7.402344 0-14.554687-2.746094-19.96875-7.78125-20.628906-19.164062-36.722656-43.140625-46.480469-70.148438-1.9375-5.339843-3.625-10.804687-5.046875-16.363281-3.644531-14.222656-5.582031-29.121093-5.582031-44.472656 0-98.671875 79.949219-178.679687 178.597656-178.773437 6.238282-.011719 12.398438.3125 18.46875.929687 76.097656 7.800781 138.335938 63.707031 155.667969 136.640625 3.152344 13.234375 4.816406 27.023438 4.816406 41.203125zm0 0" fill="#ae583e"/><path d="m357.550781 370.921875c0 15.351563-1.9375 30.25-5.582031 44.472656-8.617188 33.695313-26.816406 63.558594-51.527344 86.511719-5.414062 5.035156-12.566406 7.78125-19.960937 7.78125h-166.753907c-7.402343 0-14.554687-2.746094-19.96875-7.78125-20.625-19.164062-36.722656-43.140625-46.480468-70.148438-1.9375-5.339843-3.621094-10.804687-5.046875-16.363281-3.644531-14.222656-5.582031-29.121093-5.582031-44.472656 0-92.535156 70.316406-168.648437 160.417968-177.84375 76.097656 7.800781 138.335938 63.707031 155.667969 136.640625 3.152344 13.234375 4.816406 27.023438 4.816406 41.203125zm0 0" fill="#c0694e"/><path d="m352.734375 329.71875c-.421875.5-.652344.773438-.652344.773438l-35.914062 65.855468c-6.367188 11.664063-23.601563 10-27.613281-2.671875l-14.660157-46.335937c-3.683593-11.675782-19.027343-14.3125-26.40625-4.535156l-23.332031 30.945312c-8.03125 10.648438-24.921875 6.386719-26.941406-6.796875l-8.535156-55.851563c-2.292969-14.984374-22.792969-17.59375-28.761719-3.65625l-41.738281 97.507813c-6.261719 14.628906-27.980469 10.835937-28.914063-5.046875l-3.066406-52.398438c-.902344-15.433593-21.675781-19.664062-28.542969-5.820312l-44.753906 90.101562s-.808594-.007812-2.273438-.03125c-1.9375-5.339843-3.625-10.804687-5.046875-16.363281-3.644531-14.222656-5.582031-29.121093-5.582031-44.472656 0-98.671875 79.949219-178.679687 178.597656-178.773437 84.335938-.085938 155.421875 58.816406 174.136719 137.570312zm0 0" fill="#954c35"/><path d="m197.058594 193.078125c-6.074219-.617187-12.230469-.941406-18.460938-.929687-98.648437.09375-178.597656 80.101562-178.597656 178.773437 0 15.351563 1.9375 30.25 5.582031 44.472656 1.421875 5.558594 3.109375 11.023438 5.046875 16.363281 1.464844.023438 2.273438.03125 2.273438.03125l24.15625-48.648437c-.273438-4.039063-.410156-8.113281-.410156-12.21875 0-92.535156 70.304687-168.640625 160.410156-177.84375zm0 0" fill="#7c3f2c"/><g fill="#ffe1aa"><path d="m268.066406 97.90625c0 6.703125-5.433594 12.140625-12.140625 12.140625-6.703125 0-12.140625-5.4375-12.140625-12.140625 0-6.707031 5.4375-12.140625 12.140625-12.140625 6.707031 0 12.140625 5.433594 12.140625 12.140625zm0 0"/><path d="m325.332031 52.976562c0 6.703126-5.4375 12.140626-12.140625 12.140626-6.707031 0-12.140625-5.4375-12.140625-12.140626 0-6.707031 5.433594-12.140624 12.140625-12.140624 6.703125 0 12.140625 5.433593 12.140625 12.140624zm0 0"/><path d="m391.722656 110.046875c0 6.703125-5.4375 12.140625-12.140625 12.140625-6.707031 0-12.140625-5.4375-12.140625-12.140625 0-6.707031 5.433594-12.140625 12.140625-12.140625 6.703125 0 12.140625 5.433594 12.140625 12.140625zm0 0"/><path d="m455.863281 110.046875c0 6.703125-5.4375 12.140625-12.140625 12.140625-6.707031 0-12.140625-5.4375-12.140625-12.140625 0-6.707031 5.433594-12.140625 12.140625-12.140625 6.703125 0 12.140625 5.433594 12.140625 12.140625zm0 0"/><path d="m243.789062 284.140625c0 6.707031-5.4375 12.140625-12.140624 12.140625-6.707032 0-12.140626-5.433594-12.140626-12.140625 0-6.703125 5.433594-12.140625 12.140626-12.140625 6.703124 0 12.140624 5.4375 12.140624 12.140625zm0 0"/><path d="m154.449219 249.3125c0 6.707031-5.433594 12.140625-12.140625 12.140625-6.703125 0-12.140625-5.433594-12.140625-12.140625 0-6.703125 5.4375-12.140625 12.140625-12.140625 6.707031 0 12.140625 5.4375 12.140625 12.140625zm0 0"/><path d="m98.527344 296.28125c0 6.703125-5.433594 12.140625-12.140625 12.140625-6.703125 0-12.136719-5.4375-12.136719-12.140625 0-6.707031 5.433594-12.140625 12.136719-12.140625 6.707031 0 12.140625 5.433594 12.140625 12.140625zm0 0"/><path d="m315.472656 310.265625c0 6.703125-5.4375 12.140625-12.140625 12.140625s-12.140625-5.4375-12.140625-12.140625c0-6.707031 5.4375-12.140625 12.140625-12.140625s12.140625 5.433594 12.140625 12.140625zm0 0"/></g></svg>