<svg height="512" viewBox="0 0 64 64" width="512" xmlns="http://www.w3.org/2000/svg"><path d="m51 48h-38l3.769-28.264a2 2 0 0 1 1.982-1.736h26.5a2 2 0 0 1 1.982 1.736z" fill="#ffd782"/><path d="m3 48h58v4h-58z" fill="#cfdfe8"/><path d="m49 56h-34l-6-4h46z" fill="#aabece"/><path d="m48.33 28h-3.33a2.006 2.006 0 0 0 -2 2v11a3 3 0 0 1 -3.16 3 3.128 3.128 0 0 1 -2.84-3.17v-5.83a3 3 0 0 0 -3.16-3 3.128 3.128 0 0 0 -2.84 3.17v2.83a3 3 0 0 1 -3.16 3 3.128 3.128 0 0 1 -2.84-3.17v-7.83a2.006 2.006 0 0 0 -2-2h-7.33l1.1-8.26a2 2 0 0 1 1.98-1.74h26.5a2 2 0 0 1 1.98 1.74z" fill="#d3843d"/><path d="m18 35h2v2h-2z" fill="#f4f4e6"/><path d="m20 40h2v2h-2z" fill="#f4f4e6"/><circle cx="32" cy="15" fill="#e1462b" r="3"/><path d="m24 8h4a4 4 0 0 1 4 4 0 0 0 0 1 0 0h-4a4 4 0 0 1 -4-4 0 0 0 0 1 0 0z" fill="#55b56a"/><g fill="#ad6327"><path d="m30.92 18-.92 10.09-2-.18.9-9.91z"/><path d="m26.62 18-2.73 5.45-1.78-.9 2.28-4.55z"/><path d="m36 27.91-2 .18-.92-10.09h2.02z"/><path d="m41.89 22.55-1.78.9-2.72-5.45h2.23z"/></g></svg>