<svg id="Layer_1" enable-background="new 0 0 513 513" height="512" viewBox="0 0 513 513" width="512" xmlns="http://www.w3.org/2000/svg"><g><g><path clip-rule="evenodd" d="m256.5 74.967c-55.093 0-102.21 29.68-121.369 71.602l122.363 10.85 120.348-10.85c-19.16-41.95-66.277-71.602-121.342-71.602z" fill="#cbe2ff" fill-rule="evenodd"/></g><g><path clip-rule="evenodd" d="m245.771 75.365c31.79 7.583 77.772 40.842 83.931 71.204h29.888 18.251c-19.159-41.95-66.276-71.602-121.341-71.602-3.633 0-7.21.142-10.729.398z" fill="#bed8fb" fill-rule="evenodd"/></g><g><path clip-rule="evenodd" d="m139.899 188.405 3.832 40.388s17.314 5.198 88.245 11.616c70.903 6.39 126.308-8.663 138.456-24.142l2.64-27.862-116.572-20.933z" fill="#cbe2ff" fill-rule="evenodd"/></g><g><path clip-rule="evenodd" d="m143.731 228.792 4.485 47.261 109.278 24.738 107.291-24.738 5.648-59.786c-12.148 15.479-68.973 13.037-139.904 6.618-70.903-6.391-86.798 5.907-86.798 5.907z" fill="#ffd772" fill-rule="evenodd"/></g><g><path clip-rule="evenodd" d="m156.021 358.618 11.95 126.219c1.079 11.304 9.282 20.648 20.635 20.648h135.788c11.325 0 19.557-9.344 20.635-20.648l11.921-126.219-99.457-25.107z" fill="#ffd772" fill-rule="evenodd"/></g><g><path clip-rule="evenodd" d="m348.095 225.753-4.768 50.3h21.458l5.648-59.786c-3.662 4.658-11.382 7.697-22.338 9.486z" fill="#fbba58" fill-rule="evenodd"/></g><g><path clip-rule="evenodd" d="m335.521 358.618-11.95 126.219c-1.079 11.304-9.282 20.648-20.635 20.648h21.458c11.325 0 19.557-9.344 20.635-20.648l11.921-126.219z" fill="#fbba58" fill-rule="evenodd"/></g><g><path clip-rule="evenodd" d="m349.287 215.046-1.192 10.708c10.956-1.789 18.677-4.828 22.338-9.486l2.64-27.862h-13.483-7.976-211.715l1.646 17.41h197.495c7.948-.001 10.9 2.243 10.247 9.23z" fill="#bed8fb" fill-rule="evenodd"/></g><g><path clip-rule="evenodd" d="m148.216 276.053 7.806 82.565h86.486c-7.522-10.253-12.233-24.937-12.233-41.268s4.712-31.043 12.233-41.297z" fill="#f9f7f8" fill-rule="evenodd"/></g><g><path clip-rule="evenodd" d="m284.714 317.35c0 16.331-4.712 31.015-12.233 41.268h84.47l7.834-82.565h-92.305c7.522 10.254 12.234 24.966 12.234 41.297z" fill="#f9f7f8" fill-rule="evenodd"/></g><g><path clip-rule="evenodd" d="m343.326 276.053-7.805 82.565h21.43l7.833-82.565z" fill="#e5e4ed" fill-rule="evenodd"/></g><g><path clip-rule="evenodd" d="m231.891 276.053c-7.522 10.253-12.233 24.965-12.233 41.297s4.712 31.015 12.233 41.268c6.755 9.174 15.725 14.769 25.602 14.769 9.878 0 18.875-5.595 25.602-14.769 7.522-10.253 12.233-24.937 12.233-41.268s-4.712-31.043-12.233-41.297c-6.727-9.174-15.725-14.769-25.602-14.769s-18.846 5.596-25.602 14.769z" fill="#f37c7c" fill-rule="evenodd"/></g><g><path clip-rule="evenodd" d="m262.006 276.451c4.258 5.766 7.607 12.951 9.707 21.046 1.646 6.277 2.555 13.093 2.555 20.251 0 6.816-.823 13.349-2.356 19.399-2.1 8.435-5.506 15.905-9.906 21.87-4.116 5.624-9.083 9.884-14.589 12.383 3.207 1.306 6.585 1.988 10.076 1.988 9.878 0 18.875-5.595 25.602-14.769 3.434-4.658 6.273-10.282 8.345-16.53 2.498-7.47 3.889-15.877 3.889-24.738 0-8.748-1.362-17.041-3.775-24.426-2.072-6.39-4.967-12.099-8.458-16.871-6.727-9.174-15.725-14.769-25.602-14.769-3.832 0-7.522.852-10.985 2.414 5.847 2.385 11.155 6.816 15.497 12.752z" fill="#ee6161" fill-rule="evenodd"/></g><g><path clip-rule="evenodd" d="m205.523 446.409c0 9.969 8.089 18.064 18.052 18.064s18.052-8.095 18.052-18.064-8.089-18.064-18.052-18.064-18.052 8.095-18.052 18.064z" fill="#e29d7b" fill-rule="evenodd"/></g><g><path clip-rule="evenodd" d="m282.358 431.668c0 9.969 8.061 18.064 18.024 18.064 9.991 0 18.052-8.095 18.052-18.064s-8.061-18.064-18.052-18.064c-9.963.001-18.024 8.095-18.024 18.064z" fill="#e29d7b" fill-rule="evenodd"/></g><g><path clip-rule="evenodd" d="m215.798 430.106c6.074 2.897 10.275 9.117 10.275 16.303s-4.201 13.406-10.247 16.303c2.327 1.136 4.967 1.761 7.749 1.761 9.963 0 18.052-8.095 18.052-18.064s-8.089-18.064-18.052-18.064c-2.782 0-5.422.625-7.777 1.761z" fill="#ce8b6b" fill-rule="evenodd"/></g><g><path clip-rule="evenodd" d="m292.604 415.366c6.103 2.897 10.303 9.117 10.303 16.303s-4.201 13.406-10.275 16.303c2.356 1.136 4.996 1.761 7.749 1.761 9.991 0 18.052-8.095 18.052-18.064s-8.061-18.064-18.052-18.064c-2.781 0-5.421.625-7.777 1.761z" fill="#ce8b6b" fill-rule="evenodd"/></g><g><path clip-rule="evenodd" d="m131.923 146.569c-9.31 0-16.917 7.64-16.917 16.956v7.924c0 9.316 7.607 16.956 16.917 16.956h7.976 233.173 7.976c9.31 0 16.945-7.64 16.945-16.956v-7.924c0-9.316-7.635-16.956-16.945-16.956h-3.207-242.71z" fill="#f9f7f8" fill-rule="evenodd"/></g><g><path clip-rule="evenodd" d="m376.535 163.525v7.924c0 9.316-7.607 16.956-16.945 16.956h13.482 7.976c9.31 0 16.945-7.64 16.945-16.956v-7.924c0-9.316-7.635-16.956-16.945-16.956h-3.207-18.251c9.338 0 16.945 7.64 16.945 16.956z" fill="#e5e4ed" fill-rule="evenodd"/></g><g><path d="m249.137 446.409c0-14.104-11.467-25.578-25.562-25.578s-25.563 11.475-25.563 25.578c0 14.104 11.468 25.578 25.563 25.578s25.562-11.474 25.562-25.578zm-36.105 0c0-5.817 4.729-10.549 10.542-10.549s10.541 4.732 10.541 10.549-4.729 10.549-10.541 10.549c-5.813 0-10.542-4.732-10.542-10.549z"/><path d="m325.944 431.668c0-14.104-11.468-25.578-25.563-25.578-14.079 0-25.533 11.475-25.533 25.578 0 14.104 11.454 25.578 25.533 25.578 14.095 0 25.563-11.474 25.563-25.578zm-36.076 0c0-5.817 4.716-10.549 10.513-10.549 5.813 0 10.542 4.732 10.542 10.549s-4.729 10.549-10.542 10.549c-5.797 0-10.513-4.732-10.513-10.549z"/><path d="m382.579 139.109c-10.374-20.4-26.906-37.794-48.075-50.519-18.785-11.292-40.224-18.236-62.704-20.41l5.247-34.317 68.162-19.117c3.995-1.122 6.328-5.27 5.207-9.258-1.122-3.998-5.257-6.322-9.262-5.21l-72.828 20.42c-2.844.792-4.957 3.186-5.397 6.102l-6.208 40.65h-.22c-28.028 0-55.004 7.314-78.025 21.161-21.169 12.715-37.701 30.109-48.085 50.499-12.757.792-22.891 11.433-22.891 24.418v7.926c0 13.486 11.065 24.468 24.683 24.468h.884l20.019 211.463c.369 3.891 3.64 6.807 7.468 6.807.237 0 .476-.012.717-.034 4.13-.391 7.16-4.059 6.769-8.19l-3.771-39.834h64.052c8.11 9.563 18.288 14.769 29.173 14.769s21.064-5.206 29.173-14.769h62.048l-11.162 117.989c-.657 6.882-5.388 13.848-13.159 13.848h-135.788c-7.771 0-12.502-6.967-13.158-13.842l-4.229-44.705c-.392-4.131-4.044-7.149-8.185-6.773-4.129.391-7.16 4.058-6.769 8.19l4.23 44.71c1.518 15.905 13.34 27.449 28.111 27.449h135.788c14.771 0 26.593-11.544 28.112-27.455l27.4-289.625h1.402c13.338 0 24.192-10.981 24.192-24.468v-7.926c0-12.984-10.144-23.625-22.921-24.417zm-113.052-56.049c40.985 3.677 76.723 24.568 95.839 56h-104.39zm-15.11-.562-8.641 56.561h-98.172c20.818-34.197 61.312-55.919 106.813-56.561zm-106.262 113.422h88.939l-3.019 19.738c-.959-.086-1.93-.172-2.873-.257-44.923-4.047-68.787-.839-80.956 2.617zm70.853 155.184h-56.162l-6.393-67.535h62.564c-4.466 10.03-6.869 21.671-6.869 33.782 0 12.101 2.4 23.731 6.86 33.753zm38.486 14.769c-16.438 0-30.326-22.22-30.326-48.523 0-26.317 13.888-48.551 30.326-48.551s30.326 22.234 30.326 48.551c-.001 26.302-13.888 48.523-30.326 48.523zm92.643-14.769h-54.158c4.46-10.022 6.86-21.652 6.86-33.753 0-12.111-2.403-23.752-6.869-33.782h60.555zm7.811-82.565h-71.291c-8.109-9.563-18.283-14.769-29.163-14.769s-21.055 5.206-29.163 14.769h-73.301l-3.329-35.163c7.737-2.662 29.286-7.413 78.152-3.006 26.241 2.375 58.958 5.007 85.392 5.007 2.542 0 5.026-.024 7.44-.075 17.052-.362 29.758-1.974 38.885-5.032zm32.532-97.086c0 5.2-4.116 9.438-9.172 9.438h-51.239c-4.145 0-7.51 3.366-7.51 7.515 0 4.148 3.365 7.515 7.51 7.515h34.749l-1.605 16.969c-3.468 2.681-13.269 6.8-40.848 7.386-21.402.459-48.702-1.29-73.293-3.322l3.213-21.032h47.364c4.145 0 7.51-3.367 7.51-7.515s-3.365-7.515-7.51-7.515h-167.466c-5.237 0-9.663-4.329-9.663-9.438v-7.926c0-5.21 4.216-9.438 9.403-9.438h3.204 242.716 3.204c5.207 0 9.433 4.228 9.433 9.438z"/></g></g></svg>